<?xml version="1.0" encoding="utf-8"?>
<!-- Generator: Adobe Illustrator 19.2.1, SVG Export Plug-In . SVG Version: 6.00 Build 0)  -->
<svg version="1.1" id="Layer_1" xmlns="http://www.w3.org/2000/svg" xmlns:xlink="http://www.w3.org/1999/xlink" x="0px" y="0px"
	 width="18px" height="18px" viewBox="0 0 18 18" style="enable-background:new 0 0 18 18;" xml:space="preserve">
<style type="text/css">
	.st0{fill:#FFFFFF;}
	.st1{fill:none;}
</style>
<g id="XMLID_24_">
	<path id="XMLID_17_" class="st0" d="M6.7,18h3.6V8.9h2.5l0.3-3h-2.8c0,0,0-1.1,0-1.7c0-0.7,0.1-1,0.8-1c0.6,0,2,0,2,0V0
		c0,0-2.1,0-2.5,0C7.9,0,6.7,1.2,6.7,3.5c0,2,0,2.4,0,2.4H4.8V9h1.9C6.7,9,6.7,18,6.7,18z"/>
</g>
<rect id="XMLID_1_" class="st1" width="18" height="18"/>
</svg>
