<?xml version="1.0" encoding="utf-8"?>
<!-- Generator: Adobe Illustrator 19.2.1, SVG Export Plug-In . SVG Version: 6.00 Build 0)  -->
<svg version="1.1" id="Layer_1" xmlns="http://www.w3.org/2000/svg" xmlns:xlink="http://www.w3.org/1999/xlink" x="0px" y="0px"
	 width="20px" height="20px" viewBox="0 0 20 20" style="enable-background:new 0 0 20 20;" xml:space="preserve">
<style type="text/css">
	.st0{fill:#FFFFFF;}
	.st1{fill:none;}
</style>
<g>
	<g>
		<path class="st0" d="M20,13c0-1-0.2-2.2-0.5-3.2c-1.1-3.4-3.2-5.9-6.2-7.6c-1.8-1.1-3.8-1.6-6-1.7c-0.5,0-0.9,0-1.4,0
			c-0.5,0-0.8,0.3-1,0.8C4.8,1.6,4.8,1.9,4.8,2.2c0.1,0.6,0.4,0.9,1,1.1c0.3,0.1,0.6,0.1,1,0.1c0.8,0,1.5,0.1,2.3,0.3
			c3.6,0.9,6.6,3.8,7.5,7.5c0.2,0.8,0.3,1.5,0.3,2.3c0,0.7,0.5,1.2,1.1,1.3c0.3,0.1,0.7,0,1,0c0.5-0.1,0.9-0.5,1-1
			C19.9,13.5,19.9,13.2,20,13z M14.8,13.1c0-0.3-0.1-0.6-0.1-0.9c-0.3-2-1.3-3.6-2.9-4.9c-1.2-0.9-2.6-1.5-4.1-1.8
			c-0.5-0.1-1-0.2-1.6-0.2C5.5,5.3,5,5.7,4.9,6.4c0,0.2-0.1,0.3-0.1,0.5c0,0.7,0.3,1.1,0.9,1.3c0.1,0,0.3,0.1,0.4,0.1
			C6.6,8.3,7,8.3,7.4,8.4c1.9,0.4,3.3,1.5,3.9,3.4c0.2,0.6,0.3,1.1,0.3,1.7c0.1,0.7,0.5,1.1,1.1,1.2c0.3,0.1,0.7,0.1,1,0
			c0.5-0.1,0.9-0.5,1-1C14.8,13.5,14.8,13.2,14.8,13.1z"/>
		<path class="st0" d="M0,9.5c0-0.2,0-0.5,0-0.7c0-0.7,0-1.3,0-2c0-0.2,0-0.4,0.1-0.6c0.2-0.5,0.5-0.8,1.1-0.9c0.2,0,0.4,0,0.6,0
			c0.4,0.1,0.7,0.3,0.8,0.7C2.8,6.4,2.8,6.7,2.8,7c0,1,0,2.1,0,3.1c0,0,0,0.1,0,0.2c0.1,0,0.2-0.1,0.2-0.1C3.8,10,4.5,9.8,5.2,9.9
			c1.3,0.1,2.3,0.6,3.2,1.5c1,1,1.4,2.3,1.3,3.7c-0.1,2.2-1.8,4-3.9,4.4c-2.6,0.5-5-1.1-5.7-3.6c-0.1-0.5-0.1-1.1-0.1-1.6
			c0-0.8,0-1.6,0-2.3c0,0,0-0.1,0-0.1C0,11,0,10.3,0,9.5z M7,14.7c0-1.1-0.9-2-2.1-2c-1.1,0-2.1,1-2.1,2.1c0,1.1,0.9,2,2.1,2
			C6.1,16.8,7,15.9,7,14.7z"/>
		<path class="st0" d="M20,13c0,0.2,0,0.5-0.1,0.7c-0.1,0.5-0.4,0.9-1,1c-0.3,0.1-0.6,0.1-1,0c-0.7-0.1-1.1-0.6-1.1-1.3
			c0-0.8-0.1-1.6-0.3-2.3C15.6,7.5,12.7,4.5,9,3.7C8.3,3.5,7.5,3.4,6.8,3.4c-0.3,0-0.7-0.1-1-0.1c-0.6-0.1-0.9-0.5-1-1.1
			c0-0.3,0-0.6,0.1-0.9c0.2-0.5,0.5-0.8,1-0.8c0.5,0,0.9,0,1.4,0c2.1,0.1,4.1,0.7,6,1.7c3,1.8,5.1,4.3,6.2,7.6
			C19.8,10.8,19.9,12,20,13z"/>
		<path class="st0" d="M14.8,13.1c0,0.2,0,0.4-0.1,0.6c-0.1,0.5-0.4,0.9-1,1c-0.3,0.1-0.7,0.1-1,0c-0.6-0.1-1-0.6-1.1-1.2
			c-0.1-0.6-0.1-1.2-0.3-1.7c-0.7-1.9-2-3-3.9-3.4C7,8.3,6.6,8.3,6.1,8.2C6,8.2,5.9,8.2,5.7,8.2C5.1,8,4.8,7.5,4.8,6.9
			c0-0.2,0-0.3,0.1-0.5c0.1-0.7,0.6-1,1.3-1.1c0.5,0,1,0.1,1.6,0.2c1.5,0.3,2.9,0.9,4.1,1.8c1.6,1.3,2.6,2.9,2.9,4.9
			C14.7,12.4,14.8,12.7,14.8,13.1z"/>
	</g>
	<rect x="0" class="st1" width="20" height="20"/>
</g>
</svg>
