<?xml version="1.0" encoding="utf-8"?>
<!-- Generator: Adobe Illustrator 19.0.0, SVG Export Plug-In . SVG Version: 6.00 Build 0)  -->
<svg version="1.1" id="Layer_1" xmlns="http://www.w3.org/2000/svg" xmlns:xlink="http://www.w3.org/1999/xlink" x="0px" y="0px"
	 width="18px" height="18px" viewBox="0 0 18 18" enable-background="new 0 0 18 18" xml:space="preserve">
<rect id="XMLID_1_" fill="none" width="18" height="18"/>
<g id="XMLID_24_">
	<path id="XMLID_13_" fill="#FFFFFF" d="M11.4,7c0.3,0,0.7-0.1,1.1-0.6v0.6h1V1.8h-1v3.9c-0.1,0.1-0.4,0.4-0.6,0.4
		c-0.2,0-0.3-0.1-0.3-0.3V1.8h-1v4.3C10.7,6.6,10.9,7,11.4,7z"/>
	<path id="XMLID_34_" fill="#FFFFFF" d="M7.1,5.7C7.1,6.6,7.6,7,8.5,7c0.8,0,1.4-0.5,1.4-1.4V3.2c0-0.8-0.6-1.4-1.4-1.4
		c-0.8,0-1.4,0.6-1.4,1.4V5.7z M8.1,3.2c0-0.3,0.1-0.5,0.4-0.5c0.3,0,0.4,0.2,0.4,0.5v2.4c0,0.3-0.1,0.5-0.4,0.5
		c-0.3,0-0.4-0.2-0.4-0.5V3.2z"/>
	<polygon id="XMLID_10_" fill="#FFFFFF" points="4.9,6.9 5.9,6.9 5.9,4.1 7.2,0 6.1,0 5.4,2.8 4.7,0 3.6,0 4.9,4.1 	"/>
	<path id="XMLID_27_" fill="#FFFFFF" d="M14.7,8.1H3.5c-1.2,0-2.2,1-2.2,2.2v5.5c0,1.2,1,2.2,2.2,2.2h11.2c1.2,0,2.2-1,2.2-2.2v-5.5
		C16.9,9.1,15.9,8.1,14.7,8.1z M5,16.4H4v-5.7H2.9v-1H6v1H5V16.4z M8.6,16.4H7.7v-0.5c-0.2,0.2-0.3,0.3-0.5,0.5
		C6.7,16.6,6,16.6,6,15.6v-4.1h0.9v3.7c0,0.2,0,0.3,0.2,0.3c0.2,0,0.4-0.2,0.5-0.4v-3.7h0.9V16.4z M12.1,15.4c0,0.6-0.2,1.1-0.8,1.1
		c-0.3,0-0.6-0.1-0.9-0.4v0.4H9.5V9.7h0.9v2.1c0.2-0.2,0.5-0.5,0.8-0.5c0.7,0,0.9,0.6,0.9,1.2V15.4z M15.5,14h-1.7V15
		c0,0.4,0,0.7,0.4,0.7c0.4,0,0.4-0.3,0.4-0.7v-0.3h0.9V15c0,0.9-0.4,1.5-1.4,1.5c-0.9,0-1.3-0.6-1.3-1.5v-2.2c0-0.8,0.6-1.4,1.4-1.4
		c0.9,0,1.3,0.6,1.3,1.4V14z"/>
	<path id="XMLID_4_" fill="#FFFFFF" d="M14.1,12.2c-0.3,0-0.4,0.2-0.4,0.6v0.5h0.8v-0.5C14.5,12.5,14.4,12.2,14.1,12.2z"/>
	<path id="XMLID_3_" fill="#FFFFFF" d="M10.6,12.2c-0.1,0-0.1,0.1-0.2,0.1v3c0.1,0.1,0.1,0.1,0.2,0.2c0.1,0.1,0.4,0.1,0.5-0.1
		c0.1-0.1,0.1-0.2,0.1-0.3v-2.5c0-0.2,0-0.3-0.1-0.4C11,12.2,10.8,12.2,10.6,12.2z"/>
</g>
</svg>
